<?xml version="1.0" ?><svg height="256px" id="Layer_1" style="enable-background:new 0 0 256 256;" version="1.1" viewBox="0 0 256 256" width="256px" xml:space="preserve" xmlns="http://www.w3.org/2000/svg" xmlns:xlink="http://www.w3.org/1999/xlink"><style type="text/css">
	.st0{fill:none;stroke:#000000;stroke-width:4;stroke-linecap:round;stroke-linejoin:round;stroke-miterlimit:10;}
</style><path class="st0" d="M23.5,121.532c-1.728,60.91,47.407,110.941,104.522,110.352c55.764-0.574,100.453-48.531,101.638-103.453  c1.201-55.678-42.693-105.555-98.593-107.994c-87.395-3.296-107.187,79.692-106.335,83.439"/><path class="st0" d="M147.555,63.716c-1.775-0.951-5.991,5.737-9.734,5.929c-22.86,0.27-25.258-1.456-40.631,2.204  C86.377,74.423,76.937,84.193,76.104,96.73c-0.925,21.362,20.463,28.221,21.138,29.447s1.08,12.202,0,13.697  s-30.463,6.859-30.995,25.365c-0.156,14.053,21.766,24.809,39.227,23.97c12.701-0.61,33.579-7.866,35.594-25.238  c1.211-20.173-25.613-27.403-25.611-32.467c0.002-5.065,12.855-7.339,17.456-22.828c3.239-9.543,0.405-20.4-7.232-27.775  c5.834-0.888,14.837-0.571,17.5-2.663C145.844,76.145,149.33,64.667,147.555,63.716z"/><path class="st0" d="M98.03,77.73c-6.516,1.411-10.54,15.94-8.497,24.858c2.448,10.687,11.963,20.279,20.672,17.629  c8.124-2.472,10.619-14.964,7.863-24.604c-2.273-7.95-12.176-17.644-16.487-16.107"/><path class="st0" d="M129.102,158.898c0-3.662-8.626-13.093-23.589-14.077c-10.537-0.693-24.005,6.313-25.619,15.599  c-1.76,10.132,10.957,19.647,24.35,19.277c9.399-0.26,22.829-7.879,22.195-16.741"/><path class="st0" d="M164.993,73.672c0.338,13.232,0.677,26.464,1.015,39.696"/><path class="st0" d="M147.492,94.344c12.217-0.127,24.435-0.254,36.652-0.38"/></svg>