<?xml version="1.0" encoding="UTF-8" standalone="no"?>
<svg
   xmlns:dc="http://purl.org/dc/elements/1.1/"
   xmlns:cc="http://creativecommons.org/ns#"
   xmlns:rdf="http://www.w3.org/1999/02/22-rdf-syntax-ns#"
   xmlns:svg="http://www.w3.org/2000/svg"
   xmlns="http://www.w3.org/2000/svg"
   xmlns:sodipodi="http://sodipodi.sourceforge.net/DTD/sodipodi-0.dtd"
   xmlns:inkscape="http://www.inkscape.org/namespaces/inkscape"
   data-name="Layer 1"
   id="Layer_1"
   viewBox="0 0 300 300"
   version="1.1"
   sodipodi:docname="HexagonRoll.svg"
   inkscape:version="0.92.1 r15371">
  <metadata
     id="metadata4502">
    <rdf:RDF>
      <cc:Work
         rdf:about="">
        <dc:format>image/svg+xml</dc:format>
        <dc:type
           rdf:resource="http://purl.org/dc/dcmitype/StillImage" />
        <dc:title></dc:title>
      </cc:Work>
    </rdf:RDF>
  </metadata>
  <defs
     id="defs4500" />
  <sodipodi:namedview
     pagecolor="#ffffff"
     bordercolor="#666666"
     borderopacity="1"
     objecttolerance="10"
     gridtolerance="10"
     guidetolerance="10"
     inkscape:pageopacity="0"
     inkscape:pageshadow="2"
     inkscape:window-width="2865"
     inkscape:window-height="1744"
     id="namedview4498"
     showgrid="false"
     inkscape:zoom="4.4500586"
     inkscape:cx="54.645793"
     inkscape:cy="157.30733"
     inkscape:window-x="319"
     inkscape:window-y="-16"
     inkscape:window-maximized="1"
     inkscape:current-layer="Layer_1" />
  <path
     d="m 218.71637,7.372334 62.92344,101.475066 9.16073,14.76212 v -4.35889 l -62.92345,101.47506 -9.16072,14.76211 4.04196,-2.16491 H 78.589974 l 4.041958,2.16491 -62.923444,-101.50411 -9.16073,-14.76212 v 4.35889 L 73.471202,22.105397 82.631932,7.343275 78.589974,9.537252 H 222.75833 c 6.02392,0 6.03952,-8.71778904 0,-8.71778904 H 94.789012 c -5.118772,0 -11.080265,-0.799131 -16.152219,0 C 73.954989,1.560474 71.863783,7.285156 69.694547,10.786802 L 32.69269,70.474594 2.4170255,119.22157 a 4.6818038,4.3588944 0 0 0 0,4.35889 l 46.4591005,74.84222 23.627503,38.09673 c 1.669843,2.68798 2.512569,4.82385 6.242405,5.46314 3.246052,0.55214 7.16316,0 10.440424,0 H 202.17399 c 6.08635,0 20.28782,2.61535 24.73553,-2.44097 2.40334,-2.77516 4.07318,-6.5674 5.97711,-9.64768 l 12.37556,-19.84751 53.66908,-86.43687 a 4.6818038,4.3588944 0 0 0 0,-4.35889 L 235.96101,17.746503 226.80029,2.984381 c -3.01197,-4.867433 -11.11148,-0.479478 -8.08392,4.387953 z"
     id="path4495"
     inkscape:connector-curvature="0"
     style="stroke-width:1.50582159;fill:#ffffff" />
</svg>
