<?xml version="1.0" ?><!DOCTYPE svg  PUBLIC '-//W3C//DTD SVG 1.1//EN'  'http://www.w3.org/Graphics/SVG/1.1/DTD/svg11.dtd'><svg height="120px" id="Layer_1" style="enable-background:new 4 4 120 120;" version="1.1" viewBox="4 4 120 120" width="120px" xml:space="preserve" xmlns="http://www.w3.org/2000/svg" xmlns:xlink="http://www.w3.org/1999/xlink"><g id="bubble2"><g><path d="M113.971,42.43c-0.502-0.73-0.597-1.863-0.924-2.77c-1.201-3.307-3.695-5.325-4.921-8.611    c-1.483-1.08-3.231-1.895-4.614-3.076c-1.504-1.16-2.594-2.742-4.307-3.692c-2.725-0.761-5.266-1.704-7.998-2.461    c-3.145-0.444-5.908-1.27-8.609-2.154c-10.031-0.53-20.369-0.756-30.762-0.922c-0.395,0.017-0.425,0.394-0.924,0.309    c-3.58,0.005-6.744,0.431-9.844,0.922c-2.401,0.777-4.44,1.913-6.766,2.769c-0.688,0.953-2.07,1.211-2.769,2.154    c-0.969,0.67-1.662,1.619-2.77,2.152c-1.509,1.769-3.152,3.409-4.921,4.921c-1.817,2.897-4.209,5.223-5.842,8.306    c-1.962,2.859-3.284,6.352-3.999,10.459v9.536c0.445,2.015,1.106,3.813,1.538,5.845c1.171,2.213,2.857,3.906,3.69,6.459    c2.572,2.041,4.938,4.288,7.075,6.768c1.455,0.805,2.403,2.109,4.001,2.768c1.063,1.297,3.272,1.445,4.305,2.771    c3.594,0.304,6.193,1.601,9.845,1.845c4.635,0.185,10.018-0.379,14.148,0.309c0.805,0.529,0.328,2.342,1.233,2.768    c0.154,1.282,1.075,1.797,1.228,3.076c1.348,1.422,2.32,3.216,3.69,4.615c1.309,1.564,2.585,3.16,3.999,4.613    c1.31,1.564,2.742,3,4.308,4.307c0.692,1.947,3.234,3.262,5.229,2.152c1.021-0.106,0.481-1.771,0.614-2.768    c-0.227-1.458,0.35-2.115,0.311-3.384c-0.24-1.368,0.407-1.849,0.307-3.076c0.156-1.073,0.14-2.321,0.615-3.075    c0.17-2.188,0.508-4.211,0.924-6.152c0.119-1.111,0.406-2.053,0.922-2.77c0.726-0.502,0.347-2.113,0.924-2.769    c4.283-0.841,7.9-2.351,12.306-3.076c4.293-0.831,8.104-2.147,11.071-4.308c1.019-1.03,1.32-2.78,2.152-3.998    c1.043-1.008,1.558-2.543,2.461-3.69c0.871-2.925,2.056-5.532,2.769-8.613C114.268,55.235,113.85,48.559,113.971,42.43z     M107.203,65.191c-0.264-0.057-0.289,0.119-0.307,0.309c-0.899,2.688-2.998,4.184-4.617,6.152    c-1.824,1.246-3.816,2.33-5.534,3.688c-2.759,0.625-4.677,2.095-7.382,2.771c-4.768,0.051-8.766-0.627-12.924,0.307    c-0.299,0.723-0.533,1.514-0.611,2.461c-0.375,0.553-0.055,1.79-0.614,2.154c0.233,1.158-0.375,1.469-0.308,2.461    c-0.901,0.496,0.488,1.586-0.311,1.845c0.147,2.099-0.556,3.341-0.617,5.229c-0.66,0.262,0.119,1.961-0.611,2.154    c-0.188,0.734,0.385,2.23-0.309,2.461c0.053,1.297-0.472-0.006-0.922,0c-0.093-0.629-0.834-0.604-0.925-1.23    c-0.739-0.59-1.223-1.445-1.846-2.152c-1.313-1.455-2.688-2.85-3.691-4.613c-0.624-0.094-0.601-0.834-1.229-0.924    c-0.394-0.771,0.158-0.964-0.306-1.23c-0.374-0.961-1.33-1.338-1.539-2.461c-1.549-1.219-2.323-3.217-3.077-5.229    c-4.096-0.622-9.26-0.173-13.843-0.309c-2.526-0.347-4.32-1.421-6.769-1.847c-4.576-2.6-9.259-5.093-12.918-8.61    c-0.75-1.707-1.022-3.898-2.153-5.23c-0.043-0.572-0.199-1.027-0.615-1.23c-0.428-0.188-0.044-1.184-0.613-1.23    c-0.327-0.905-0.425-2.037-0.922-2.768v-8.921c0.621-4.812,2.335-8.531,4.303-11.998c1.15-1.621,2.389-3.147,3.693-4.613    c0.907-0.426,1.244-1.42,2.153-1.845c0.391-0.941,1.76-0.904,2.154-1.846c4.203-0.719,6.63-3.213,10.459-4.308    c6.315-0.655,12.408-1.531,19.687-1.229c4.476,0.955,8.453,2.415,12.611,3.691c4.806-0.192,8.802,0.423,13.229,0.614    c2.457,0.617,4.688,1.464,7.069,2.154c0.896,0.952,1.959,1.733,3.079,2.46c0.706,1.65,1.684,3.034,2.15,4.921    c0.66,0.985,1.447,1.835,2.154,2.77c0.828,0.811,1.252,2.03,1.846,3.077c0.375,1.368,0.336,3.15,0.31,4.921    C108.273,52.35,108.104,60.029,107.203,65.191z"/></g></g></svg>