<?xml version="1.0" encoding="utf-8"?>
<!-- Generator: Adobe Illustrator 21.0.2, SVG Export Plug-In . SVG Version: 6.00 Build 0)  -->
<svg version="1.1" id="Layer_1" xmlns="http://www.w3.org/2000/svg" xmlns:xlink="http://www.w3.org/1999/xlink" x="0px" y="0px"
	 viewBox="0 0 345 49.3" style="enable-background:new 0 0 345 49.3;" xml:space="preserve">
<style type="text/css">
	.st0{fill:#EA6820;}
	.st1{fill:none;}
	.st2{enable-background:new    ;}
	.st3{fill:#939598;}
</style>
<g>
	<g>
		<path d="M12.8,15.1c0,3.2,0.1,4.4,0.9,4.4h1.8v1H8.1v-1h1.6c0.4,0,0.5-0.2,0.5-0.5V6.2c0-3.2-0.1-4.4-0.9-4.4h-2V1h7.5v0.9h-1.5
			c-0.4,0-0.5,0.2-0.5,0.5v9.2c3.5-2.9,9.6-8.7,9.6-9.4c0-0.3-0.2-0.3-0.5-0.3h-2.2V1h6.7v0.9h-1.1c-0.4,0-0.7,0.2-1.1,0.6l-7.5,7.2
			c5.1,5.8,7.2,8.7,8.4,9.6c0.4,0.3,0.8,0.3,1.8,0.3v0.9h-4.3c-0.5,0-1.1-0.8-7.9-9.2L12.8,13V15.1z"/>
		<path d="M33.3,13.1c-0.7,1.7-1.8,4.7-1.8,5.6c0,0.7,0.3,0.8,0.8,0.8h2v1h-6.5v-1h0.7c0.5,0,1-0.1,1.2-0.5l8.1-18.3
			c0.8-0.2,1.7-0.4,1.9-0.4c0.1-0.1,0.3,0,0.3,0.3c0,0.4-0.6,0.4-0.6,1c0,1.4,4,11.5,5.5,15.6c0.8,1.9,1.2,2.3,1.9,2.3h1v1h-7.2v-1
			h1.7c0.2,0,0.5-0.1,0.5-0.3c0-0.2-0.9-2.3-2.2-6.1H33.3z M37.3,3.9L33.8,12h6.4L37.3,3.9z"/>
		<path d="M55.7,1.8h-1.5c-0.4,0-0.5,0.2-0.5,0.5v13.2c0,3.8,0.4,3.8,1.4,3.8h2.1c5.4,0,6.7-0.8,7.3-1.6c0.1-0.2,0.2-0.3,0.4-0.3
			c0.1,0,0.3,0.2,0.3,0.3c0,0.3-0.4,1.6-0.8,2.7H49v-1h1.6c0.4,0,0.5-0.2,0.5-0.5V6.2c0-3.2-0.1-4.4-0.9-4.4h-1.9V1h7.5
			C55.7,1,55.7,1.8,55.7,1.8z"/>
		<path d="M71,13.1c-0.7,1.7-1.8,4.7-1.8,5.6c0,0.7,0.3,0.8,0.8,0.8h2v1h-6.5v-1h0.7c0.5,0,1-0.1,1.2-0.5l8.1-18.3
			c0.8-0.2,1.7-0.4,1.9-0.4c0.2,0,0.3,0.1,0.3,0.3c0,0.4-0.6,0.4-0.6,1c0,1.4,4,11.5,5.5,15.6c0.8,1.9,1.2,2.3,1.9,2.3h1v1h-7.2v-1
			H80c0.2,0,0.5-0.1,0.5-0.3c0-0.2-0.9-2.3-2.2-6.1H71z M75,3.9L71.4,12h6.4L75,3.9z"/>
		<path d="M110.4,1.8H109c-0.4,0-0.5,0.2-0.5,0.5v12.8c0,3.2,0.1,4.4,0.9,4.4h1.8v1h-7.5v-1h1.6c0.4,0,0.5-0.2,0.5-0.5V3.9l-0.1-0.1
			l-7.2,16.3c-0.1,0.2-0.1,0.2-0.6,0.2c-0.2,0-0.3-0.4-0.5-0.8L89.9,4.3l-0.1,0.1v11.9c0,1.5,0.1,3.2,1.1,3.2h1.7v1h-5.9v-1h1.2
			c0.4,0,0.8-0.2,0.8-0.6V5.4c0-2.5-0.3-3.5-1.8-3.5h-1V1H91l7.8,15.3L105.9,1h4.6L110.4,1.8L110.4,1.8z"/>
		<path d="M117.7,13.1c-0.7,1.7-1.8,4.7-1.8,5.6c0,0.7,0.3,0.8,0.8,0.8h2v1h-6.5v-1h0.7c0.5,0,1-0.1,1.2-0.5l8.1-18.3
			c0.8-0.2,1.7-0.4,1.9-0.4c0.2,0,0.3,0.1,0.3,0.3c0,0.4-0.6,0.4-0.6,1c0,1.4,4,11.5,5.5,15.6c0.8,1.9,1.2,2.3,1.9,2.3h1v1H125v-1
			h1.7c0.2,0,0.5-0.1,0.5-0.3c0-0.2-0.9-2.3-2.2-6.1H117.7z M121.8,3.9l-3.6,8.1h6.4L121.8,3.9z"/>
		<path d="M134,20.5c-0.4,0-0.6,0-0.6-0.2s0.3-0.6,0.6-1l11.7-17.2c-4.1,0-9.9,0-10.6,1.7c-0.1,0.3-0.2,0.4-0.5,0.4
			c-0.2,0-0.3-0.2-0.3-0.3c0-0.2,0.3-1.4,0.8-2.9H149c0.1,0,0.3,0,0.3,0.2c0,0.1-0.1,0.3-0.2,0.4l-12,17.7h0.9
			c9.4,0,11.2-0.9,11.6-1.7c0.2-0.4,0.3-0.6,0.6-0.6c0.2,0,0.3,0.1,0.3,0.3c0,0.3-0.5,1.6-1,3.2L134,20.5L134,20.5z"/>
		<path d="M150.5,11c0-5.8,4.3-10.6,10.8-10.6s10.2,4.1,10.2,10c0,5.8-4.3,10.6-10.8,10.6C154.1,21,150.5,17,150.5,11z M153.3,10.1
			c0,6.9,4.3,9.9,8.1,9.9c4.4,0,7.3-3.2,7.3-8.7c0-6.9-4.3-9.9-8.1-9.9C156.2,1.4,153.3,4.6,153.3,10.1z"/>
		<path d="M172.5,11c0-5.8,4.3-10.6,10.8-10.6s10.2,4.1,10.2,10c0,5.8-4.3,10.6-10.8,10.6C176.1,21,172.5,17,172.5,11z M175.2,10.1
			c0,6.9,4.4,9.9,8.1,9.9c4.4,0,7.3-3.2,7.3-8.7c0-6.9-4.3-9.9-8.1-9.9C178.1,1.4,175.2,4.6,175.2,10.1z"/>
	</g>
	<g>
		<path class="st0" d="M216.8,3.8c-0.3,0-0.3-0.1-0.4-0.6c-0.2-1.1-2.8-1.9-4.7-1.9c-5.9,0-9.3,4.3-9.3,9.6c0,5.7,4.6,8.8,8.5,8.8
			c2.9,0,6.1-1.3,6.3-3c0-0.3,0.1-0.6,0.4-0.6c0.3,0,0.3,0.2,0.3,0.4c0,0.3-0.1,0.8-0.2,2.6c-2.1,1-4.9,1.6-7.4,1.6
			c-6.4,0-10.9-3.2-10.9-9.6c0-6.6,5.7-11.1,12.4-11.1c1.9,0,3.8,0.4,5.5,1.1C217.1,3.7,217.1,3.8,216.8,3.8z"/>
		<path class="st0" d="M218,10.8c0-5.8,4.4-10.6,10.8-10.6c6.5,0,10.2,4.1,10.2,10c0,5.8-4.3,10.6-10.8,10.6S218,16.8,218,10.8z
			 M220.7,10c0,6.9,4.4,9.9,8.1,9.9c4.4,0,7.3-3.2,7.3-8.7c0-7-4.3-10-8.1-10C223.7,1.2,220.7,4.4,220.7,10z"/>
		<path class="st0" d="M246.6,1.6h-1.5c-0.4,0-0.5,0.2-0.5,0.5v13.2c0,3.8,0.4,3.8,1.4,3.8h2.1c5.4,0,6.7-0.8,7.3-1.6
			c0.1-0.2,0.2-0.4,0.4-0.4c0.1,0,0.3,0.2,0.3,0.4c0,0.3-0.4,1.6-0.8,2.7H240v-0.9h1.6c0.4,0,0.5-0.2,0.5-0.5V6
			c0-3.2-0.1-4.4-0.9-4.4h-1.9V0.8h7.5L246.6,1.6L246.6,1.6z"/>
		<path class="st0" d="M264.3,1.6h-1.5c-0.4,0-0.5,0.2-0.5,0.5v13.2c0,3.8,0.4,3.8,1.4,3.8h2.1c5.4,0,6.7-0.8,7.3-1.6
			c0.1-0.2,0.2-0.4,0.4-0.4c0.1,0,0.3,0.2,0.3,0.4c0,0.3-0.4,1.6-0.8,2.7h-15.3v-0.9h1.6c0.4,0,0.5-0.2,0.5-0.5V6
			c0-3.2-0.1-4.4-0.9-4.4H257V0.8h7.5L264.3,1.6L264.3,1.6z"/>
		<path class="st0" d="M276.7,6c0-3.2-0.1-4.4-0.9-4.4h-1.9V0.8H290c-0.3,2.7-0.4,2.8-0.7,2.8c-0.3,0-0.3-0.2-0.4-0.6
			s-0.7-1.2-5.7-1.2H280c-0.5,0-0.7,0.2-0.7,0.6v6.7h3.8c3.3,0,4.3-0.1,4.3-1.1V6.9h0.9V12h-0.9v-1c0-0.9-0.3-0.9-4-0.9h-4v5.2
			c0,3.8,0.4,3.8,1.4,3.8h2.1c5.4,0,6.7-0.8,7.3-1.6c0.1-0.2,0.2-0.4,0.4-0.4c0.1,0,0.3,0.2,0.3,0.4c0,0.3-0.4,1.6-0.8,2.7h-15.3
			v-0.9h1.6c0.4,0,0.5-0.2,0.5-0.5L276.7,6L276.7,6z"/>
		<path class="st0" d="M310.1,17.6c0,0.9,0.4,0.8,0.4,1.2c0,0.2-0.2,0.3-0.5,0.5c-2,0.9-5.7,1.6-8.1,1.6c-6.2,0-10-4.1-10-9.8
			c0-7,6-10.9,12.7-10.9c2,0,4.1,0.3,5.8,1.2c-0.5,2.4-0.5,2.5-0.8,2.5c-0.2,0-0.4,0-0.4-0.6c0-0.8-1.8-2-5-2
			c-2.5,0-9.4,1.1-9.4,9.4c0,4.9,2.9,9,8.4,9c1.5,0,3-0.3,4.2-0.9v-2.1c0-3.8-0.2-4.6-0.9-4.6h-2.3v-0.9h7.9v0.9h-1.5
			c-0.4,0-0.6,0.1-0.6,0.4L310.1,17.6L310.1,17.6z"/>
		<path class="st0" d="M315.2,6c0-3.2-0.1-4.4-0.9-4.4h-1.9V0.8h16.1c-0.3,2.7-0.4,2.8-0.7,2.8c-0.3,0-0.3-0.2-0.4-0.6
			s-0.7-1.2-5.7-1.2h-3.2c-0.5,0-0.7,0.2-0.7,0.6v6.7h3.8c3.3,0,4.3-0.1,4.3-1.1V6.9h0.9V12h-0.9v-1c0-0.9-0.3-0.9-4-0.9h-4.1v5.2
			c0,3.8,0.4,3.8,1.4,3.8h2.1c5.4,0,6.7-0.8,7.3-1.6c0.1-0.2,0.2-0.4,0.4-0.4c0.1,0,0.3,0.2,0.3,0.4c0,0.3-0.4,1.6-0.8,2.7h-15.3
			v-0.9h1.6c0.4,0,0.5-0.2,0.5-0.5L315.2,6L315.2,6z"/>
	</g>
</g>
<g>
	<path class="st0" d="M329.4,2.3c0-0.9,0.8-1.6,1.7-1.6c0.9,0,1.6,0.8,1.6,1.7S331.9,4,331,4C330.1,4,329.4,3.3,329.4,2.3z
		 M329.7,2.3c0,0.8,0.6,1.5,1.3,1.5c0.8,0,1.4-0.7,1.4-1.4s-0.6-1.5-1.3-1.5C330.4,1,329.7,1.5,329.7,2.3z M330.4,3.2L330.4,3.2
		L330.4,3.2L330.4,3.2l0.1-1.4c0-0.4,0-0.4-0.1-0.4h-0.1V1.3h0.8c0.4,0,0.6,0.2,0.6,0.5s-0.2,0.4-0.4,0.5c0.3,0.4,0.5,0.7,0.6,0.8
		h0.1v0.1h-0.4c-0.1,0-0.4-0.7-0.5-0.8h-0.2v0.3c0,0.4,0,0.4,0.1,0.4h0.1v0.1H330.4z M331.1,1.5C331,1.5,331,1.5,331.1,1.5L331,2.4
		h0.1c0.2,0,0.4-0.1,0.4-0.4C331.4,1.8,331.4,1.5,331.1,1.5z"/>
</g>
<rect y="27.1" class="st1" width="345" height="22.2"/>
<g class="st2">
	<path class="st3" d="M11,27.7h0.9l3.6,8.7l8.2-8.7h1.2l-3.9,14.7h-1.1l3.4-12.8l-8.1,8.5h-0.1l-3.5-8.5L8.1,42.4H7L11,27.7z"/>
	<path class="st3" d="M36.7,36.2c0,1.7-0.8,3.4-2,4.6c-1.2,1.2-2.7,1.9-4.4,1.9c-2.8,0-4.8-2-4.8-4.7c0-1.7,0.8-3.4,2-4.6
		c1.2-1.2,2.7-1.9,4.4-1.9C34.8,31.4,36.7,33.4,36.7,36.2z M33.9,40.2c1-1,1.7-2.4,1.7-3.9c0-2.4-1.5-3.8-3.8-3.8
		c-1.3,0-2.5,0.6-3.5,1.5c-1,1-1.7,2.4-1.7,3.9c0,2.4,1.5,3.8,3.8,3.8C31.8,41.7,33,41.1,33.9,40.2z"/>
	<path class="st3" d="M41.2,31.7h1l-0.8,3c1.4-2,3.2-3.3,5.5-3.2l-0.3,1.1h-0.1c-2.5,0-5.1,2-6,5.4l-1.2,4.4h-1L41.2,31.7z"/>
	<path class="st3" d="M48.2,37.4c0,0.3,0,0.5,0,0.7c0,2.2,1.4,3.6,3.5,3.6c1.6,0,2.6-0.6,3.7-1.4L56,41c-1.1,0.9-2.3,1.7-4.3,1.7
		c-2.7,0-4.7-1.8-4.7-4.5c0-1.8,0.8-3.6,2.1-4.9c1.1-1.1,2.5-1.8,4.1-1.8c2.7,0,4.1,1.9,4.1,4.1c0,0.7-0.1,1.3-0.3,1.9H48.2z
		 M48.4,36.5h7.8c0-0.2,0.1-0.5,0.1-0.9c0-1.7-0.9-3.2-3-3.2c-1.3,0-2.4,0.6-3.3,1.4C49.2,34.5,48.7,35.5,48.4,36.5z"/>
	<path class="st3" d="M68.1,31.7h1l-2.9,10.7h-1L68.1,31.7z M69.1,27.5h1.3L70,28.9h-1.3L69.1,27.5z"/>
	<path class="st3" d="M73.2,31.7h1l-0.5,2c1-1.3,2.2-2.2,4.1-2.2c2.1,0,3.5,1.3,3.5,3.4c0,0.5-0.1,1-0.2,1.5l-1.6,6h-1l1.6-6.1
		c0.1-0.4,0.2-0.9,0.2-1.3c0-1.6-1-2.6-2.8-2.6c-1.8,0-3.8,1.7-4.5,4l-1.6,6h-1L73.2,31.7z"/>
	<path class="st3" d="M93.6,27.7H104l-0.3,1h-9.3l-1.6,6h8.3l-0.3,1h-8.3l-1.8,6.7h-1.1L93.6,27.7z"/>
	<path class="st3" d="M114.4,36.2c0,1.7-0.8,3.4-2,4.6c-1.2,1.2-2.7,1.9-4.4,1.9c-2.8,0-4.8-2-4.8-4.7c0-1.7,0.8-3.4,2-4.6
		c1.2-1.2,2.7-1.9,4.4-1.9C112.5,31.4,114.4,33.4,114.4,36.2z M111.6,40.2c1-1,1.7-2.4,1.7-3.9c0-2.4-1.5-3.8-3.8-3.8
		c-1.3,0-2.5,0.6-3.5,1.5c-1,1-1.7,2.4-1.7,3.9c0,2.4,1.5,3.8,3.8,3.8C109.4,41.7,110.7,41.1,111.6,40.2z"/>
	<path class="st3" d="M116.8,39.2c0-0.5,0.1-1,0.2-1.5l1.6-6h1l-1.6,6.1c-0.1,0.4-0.2,0.9-0.2,1.3c0,1.6,1,2.6,2.8,2.6
		c1.8,0,3.8-1.7,4.5-4l1.6-6h1l-2.9,10.7h-1l0.5-2c-1,1.3-2.2,2.2-4.1,2.2C118.2,42.6,116.8,41.3,116.8,39.2z"/>
	<path class="st3" d="M131.6,31.7h1l-0.8,3c1.4-2,3.2-3.3,5.5-3.2l-0.3,1.1H137c-2.5,0-5.1,2-6,5.4l-1.2,4.4h-1L131.6,31.7z"/>
	<path class="st3" d="M135.5,40.6h1.4l-0.5,1.8H135L135.5,40.6z"/>
	<path class="st3" d="M150.5,27.7h0.9l3.6,8.7l8.2-8.7h1.2l-3.9,14.7h-1.1l3.4-12.8l-8.1,8.5h-0.1l-3.5-8.5l-3.4,12.8h-1L150.5,27.7
		z"/>
	<path class="st3" d="M176.3,36.2c0,1.7-0.8,3.4-2,4.6c-1.2,1.2-2.7,1.9-4.4,1.9c-2.8,0-4.8-2-4.8-4.7c0-1.7,0.8-3.4,2-4.6
		c1.2-1.2,2.7-1.9,4.4-1.9C174.3,31.4,176.3,33.4,176.3,36.2z M173.5,40.2c1-1,1.7-2.4,1.7-3.9c0-2.4-1.5-3.8-3.8-3.8
		c-1.3,0-2.5,0.6-3.5,1.5c-1,1-1.7,2.4-1.7,3.9c0,2.4,1.5,3.8,3.8,3.8C171.3,41.7,172.6,41.1,173.5,40.2z"/>
	<path class="st3" d="M180.7,31.7h1l-0.8,3c1.4-2,3.2-3.3,5.5-3.2l-0.3,1.1h-0.1c-2.5,0-5.1,2-6,5.4l-1.2,4.4h-1L180.7,31.7z"/>
	<path class="st3" d="M187.8,37.4c0,0.3,0,0.5,0,0.7c0,2.2,1.4,3.6,3.5,3.6c1.6,0,2.6-0.6,3.7-1.4l0.6,0.7c-1.1,0.9-2.3,1.7-4.3,1.7
		c-2.7,0-4.7-1.8-4.7-4.5c0-1.8,0.8-3.6,2.1-4.9c1.1-1.1,2.5-1.8,4.1-1.8c2.7,0,4.1,1.9,4.1,4.1c0,0.7-0.1,1.3-0.3,1.9H187.8z
		 M188,36.5h7.8c0-0.2,0.1-0.5,0.1-0.9c0-1.7-0.9-3.2-3-3.2c-1.3,0-2.4,0.6-3.3,1.4C188.8,34.5,188.2,35.5,188,36.5z"/>
	<path class="st3" d="M207.7,31.7h1l-2.9,10.7h-1L207.7,31.7z M208.7,27.5h1.3l-0.4,1.4h-1.3L208.7,27.5z"/>
	<path class="st3" d="M212.7,31.7h1l-0.5,2c1-1.3,2.2-2.2,4.1-2.2c2.1,0,3.5,1.3,3.5,3.4c0,0.5-0.1,1-0.2,1.5l-1.6,6h-1l1.6-6.1
		c0.1-0.4,0.2-0.9,0.2-1.3c0-1.6-1-2.6-2.8-2.6c-1.8,0-3.8,1.7-4.5,4l-1.6,6h-1L212.7,31.7z"/>
	<path class="st3" d="M229,39.6c0-1,0.4-1.9,1-2.5c0.9-0.9,2.2-1.3,3.8-1.3c1.5,0,3,0.3,4.1,0.6l0.1-0.3c0.1-0.3,0.1-0.8,0.1-1.1
		c0-1.6-1.1-2.5-3.2-2.5c-1.2,0-2.1,0.2-3.1,0.6l-0.2-0.9c1-0.4,2.1-0.6,3.4-0.6c2.6,0,4.2,1.3,4.2,3.3c0,0.4-0.1,0.9-0.2,1.4
		l-1.6,6.1h-1l0.5-1.8c-1,1.2-2.4,2.1-4.3,2.1C230.7,42.6,229,41.6,229,39.6z M237.5,38.1l0.3-0.9c-1.1-0.3-2.5-0.5-4.1-0.5
		c-1.2,0-2.2,0.4-2.8,1c-0.5,0.5-0.8,1.1-0.8,1.8c0,1.3,1,2.2,2.6,2.2C234.7,41.7,236.9,40.3,237.5,38.1z"/>
	<path class="st3" d="M251.5,27.7h1.1l-3.7,13.7h8.6l-0.3,1h-9.7L251.5,27.7z"/>
	<path class="st3" d="M262.9,31.7h1l-2.9,10.7h-1L262.9,31.7z M263.9,27.5h1.3l-0.4,1.4h-1.3L263.9,27.5z"/>
	<path class="st3" d="M268.4,32.6h-1.6l0.3-0.9h1.6l0.4-1.6c0.3-1,0.6-1.6,1.2-2.2c0.6-0.6,1.3-0.9,2.3-0.9c0.8,0,1.6,0.2,2.1,0.5
		l-0.3,0.9c-0.7-0.3-1.2-0.5-1.9-0.5c-1.1,0-2,0.7-2.4,2.4l-0.4,1.3h3.9l-0.3,0.9h-3.9l-2.6,9.8h-1L268.4,32.6z"/>
	<path class="st3" d="M274.2,37.4c0,0.3,0,0.5,0,0.7c0,2.2,1.4,3.6,3.5,3.6c1.6,0,2.6-0.6,3.7-1.4L282,41c-1.1,0.9-2.3,1.7-4.3,1.7
		c-2.7,0-4.7-1.8-4.7-4.5c0-1.8,0.8-3.6,2.1-4.9c1.1-1.1,2.5-1.8,4.1-1.8c2.7,0,4.1,1.9,4.1,4.1c0,0.7-0.1,1.3-0.3,1.9H274.2z
		 M274.4,36.5h7.8c0-0.2,0.1-0.5,0.1-0.9c0-1.7-0.9-3.2-3-3.2c-1.3,0-2.4,0.6-3.3,1.4C275.2,34.5,274.7,35.5,274.4,36.5z"/>
	<path class="st3" d="M286,40.5c0-0.3,0.1-0.8,0.1-1l1.8-6.8h-1.6l0.3-0.9h1.6l0.9-3.4h1l-0.9,3.4h3.7l-0.3,0.9H289l-1.8,6.8
		c-0.1,0.3-0.1,0.7-0.1,0.9c0,0.9,0.7,1.3,1.7,1.3c0.5,0,0.9-0.1,1.6-0.3l-0.3,1c-0.6,0.2-1,0.3-1.5,0.3
		C287.1,42.6,286,41.9,286,40.5z"/>
	<path class="st3" d="M296.1,31.7h1l-2.9,10.7h-1L296.1,31.7z M297.1,27.5h1.3l-0.4,1.4h-1.3L297.1,27.5z"/>
	<path class="st3" d="M301.2,31.7h1l-0.5,2c1-1.3,2.1-2.2,3.8-2.2c1.9,0,2.9,1.3,3.1,2.6c1-1.6,2.5-2.6,4.5-2.6
		c1.9,0,3.3,1.4,3.3,3.4c0,0.5-0.1,1-0.3,1.5l-1.6,6h-1l1.6-6.1c0.1-0.4,0.2-0.9,0.2-1.3c0-1.6-1-2.6-2.5-2.6c-1.7,0-3.7,1.7-4.3,4
		l-1.6,6h-1l1.6-6.1c0.1-0.4,0.2-0.9,0.2-1.3c0-1.6-1-2.6-2.5-2.6c-1.7,0-3.7,1.7-4.3,4l-1.6,6h-1L301.2,31.7z"/>
	<path class="st3" d="M320,37.4c0,0.3,0,0.5,0,0.7c0,2.2,1.4,3.6,3.5,3.6c1.6,0,2.6-0.6,3.7-1.4l0.6,0.7c-1.1,0.9-2.3,1.7-4.3,1.7
		c-2.7,0-4.7-1.8-4.7-4.5c0-1.8,0.8-3.6,2.1-4.9c1.1-1.1,2.5-1.8,4.1-1.8c2.7,0,4.1,1.9,4.1,4.1c0,0.7-0.1,1.3-0.3,1.9H320z
		 M320.2,36.5h7.8c0-0.2,0.1-0.5,0.1-0.9c0-1.7-0.9-3.2-3-3.2c-1.3,0-2.4,0.6-3.3,1.4C321,34.5,320.4,35.5,320.2,36.5z"/>
</g>
<g class="st2">
	<path class="st3" d="M330.7,40.6h1.4l-0.5,1.8h-1.4L330.7,40.6z"/>
</g>
<g class="st2">
	<path class="st3" d="M336.1,31.8c0,0.5-0.2,1-0.5,1.3c-0.3,0.3-0.8,0.5-1.3,0.5c-0.9,0-1.5-0.7-1.5-1.5c0-0.5,0.2-1,0.5-1.3
		c0.3-0.3,0.8-0.5,1.3-0.5C335.5,30.4,336.1,31,336.1,31.8z M335.4,33.1c0.3-0.3,0.5-0.8,0.5-1.2c0-0.7-0.5-1.3-1.3-1.3
		c-0.5,0-0.8,0.2-1.1,0.5c-0.3,0.3-0.5,0.8-0.5,1.2c0,0.7,0.5,1.3,1.3,1.3C334.7,33.5,335.1,33.4,335.4,33.1z M333.8,32.9h-0.3
		l0.5-1.7h0.6c0.5,0,0.6,0.3,0.6,0.5c0,0.3-0.2,0.5-0.6,0.6l0.3,0.6h-0.3l-0.3-0.6H334L333.8,32.9z M334.5,32c0.2,0,0.4-0.1,0.4-0.1
		c0.1-0.1,0.1-0.1,0.1-0.2c0-0.2-0.1-0.3-0.4-0.3h-0.4l-0.2,0.6H334.5z"/>
</g>
</svg>
