<?xml version="1.0" encoding="UTF-8" standalone="no"?>
<svg
   xmlns:dc="http://purl.org/dc/elements/1.1/"
   xmlns:cc="http://creativecommons.org/ns#"
   xmlns:rdf="http://www.w3.org/1999/02/22-rdf-syntax-ns#"
   xmlns:svg="http://www.w3.org/2000/svg"
   xmlns="http://www.w3.org/2000/svg"
   xmlns:sodipodi="http://sodipodi.sourceforge.net/DTD/sodipodi-0.dtd"
   xmlns:inkscape="http://www.inkscape.org/namespaces/inkscape"
   height="512px"
   style="enable-background:new 0 0 512 512;"
   version="1.1"
   viewBox="0 0 512 512"
   width="512px"
   xml:space="preserve"
   id="svg64"
   sodipodi:docname="menuIconRoll.svg"
   inkscape:version="0.92.1 r15371"><metadata
     id="metadata70"><rdf:RDF><cc:Work
         rdf:about=""><dc:format>image/svg+xml</dc:format><dc:type
           rdf:resource="http://purl.org/dc/dcmitype/StillImage" /><dc:title></dc:title></cc:Work></rdf:RDF></metadata><defs
     id="defs68" /><sodipodi:namedview
     pagecolor="#ffffff"
     bordercolor="#666666"
     borderopacity="1"
     objecttolerance="10"
     gridtolerance="10"
     guidetolerance="10"
     inkscape:pageopacity="0"
     inkscape:pageshadow="2"
     inkscape:window-width="2865"
     inkscape:window-height="1744"
     id="namedview66"
     showgrid="false"
     inkscape:zoom="2.7675781"
     inkscape:cx="256"
     inkscape:cy="256"
     inkscape:window-x="319"
     inkscape:window-y="-16"
     inkscape:window-maximized="1"
     inkscape:current-layer="svg64" /><style
     type="text/css"
     id="style10"><![CDATA[
	.st0{display:inline;}
	.st1{fill:none;stroke:#000000;stroke-width:16;stroke-linecap:round;stroke-linejoin:round;stroke-miterlimit:10;}
	.st2{display:none;}
]]></style><g
     class="st2"
     id="Layer"><g
       class="st0"
       id="g33"><g
         id="line"><polyline
           class="st1"
           points="175,257 428,257 428,256.999    "
           id="polyline12" /><g
           id="g16"><path
             d="M107.5,248.5c4.136,0,7.5,3.364,7.5,7.5s-3.364,7.5-7.5,7.5s-7.5-3.364-7.5-7.5S103.364,248.5,107.5,248.5 M107.5,232.5      C94.521,232.5,84,243.021,84,256s10.521,23.5,23.5,23.5S131,268.979,131,256S120.479,232.5,107.5,232.5L107.5,232.5z"
             id="path14" /></g></g><g
         id="line_1_"><polyline
           class="st1"
           points="175,127 428,127 428,126.999    "
           id="polyline19" /><g
           id="g23"><path
             d="M107.5,119c4.136,0,7.5,3.364,7.5,7.5s-3.364,7.5-7.5,7.5s-7.5-3.364-7.5-7.5S103.364,119,107.5,119 M107.5,103      C94.521,103,84,113.521,84,126.5S94.521,150,107.5,150s23.5-10.521,23.5-23.5S120.479,103,107.5,103L107.5,103z"
             id="path21" /></g></g><g
         id="line_2_"><polyline
           class="st1"
           points="175,386 428,386 428,385.999    "
           id="polyline26" /><g
           id="g30"><path
             d="M107.5,378c4.136,0,7.5,3.364,7.5,7.5s-3.364,7.5-7.5,7.5s-7.5-3.364-7.5-7.5S103.364,378,107.5,378 M107.5,362      C94.521,362,84,372.521,84,385.5S94.521,409,107.5,409s23.5-10.521,23.5-23.5S120.479,362,107.5,362L107.5,362z"
             id="path28" /></g></g></g></g><g
     id="Layer_copy"><g
       id="line_5_"><g
         id="g38"><path
           d="M428,265H175c-4.418,0-8-3.582-8-8c0-4.418,3.582-8,8-8h253c4.418,0,8,3.582,8,8C436,261.418,432.418,265,428,265z"
           id="path36" /></g><g
         id="g42"><path
           d="M107.5,248.5c4.136,0,7.5,3.364,7.5,7.5s-3.364,7.5-7.5,7.5s-7.5-3.364-7.5-7.5S103.364,248.5,107.5,248.5 M107.5,232.5     C94.521,232.5,84,243.021,84,256s10.521,23.5,23.5,23.5S131,268.979,131,256S120.479,232.5,107.5,232.5L107.5,232.5z"
           id="path40" /></g></g><g
       id="line_4_"><g
         id="g47"><path
           d="M428,135H175c-4.418,0-8-3.582-8-8s3.582-8,8-8h253c4.418,0,8,3.582,8,8S432.418,135,428,135z"
           id="path45" /></g><g
         id="g51"><path
           d="M107.5,119c4.136,0,7.5,3.364,7.5,7.5s-3.364,7.5-7.5,7.5s-7.5-3.364-7.5-7.5S103.364,119,107.5,119 M107.5,103     C94.521,103,84,113.521,84,126.5S94.521,150,107.5,150s23.5-10.521,23.5-23.5S120.479,103,107.5,103L107.5,103z"
           id="path49" /></g></g><g
       id="line_3_"><g
         id="g56"><path
           d="M428,394H175c-4.418,0-8-3.582-8-8s3.582-8,8-8h253c4.418,0,8,3.582,8,8S432.418,394,428,394z"
           id="path54" /></g><g
         id="g60"><path
           d="M107.5,378c4.136,0,7.5,3.364,7.5,7.5s-3.364,7.5-7.5,7.5s-7.5-3.364-7.5-7.5S103.364,378,107.5,378 M107.5,362     C94.521,362,84,372.521,84,385.5S94.521,409,107.5,409s23.5-10.521,23.5-23.5S120.479,362,107.5,362L107.5,362z"
           id="path58" /></g></g></g></svg>