<?xml version="1.0" encoding="UTF-8" standalone="no"?>
<svg
   xmlns:dc="http://purl.org/dc/elements/1.1/"
   xmlns:cc="http://creativecommons.org/ns#"
   xmlns:rdf="http://www.w3.org/1999/02/22-rdf-syntax-ns#"
   xmlns:svg="http://www.w3.org/2000/svg"
   xmlns="http://www.w3.org/2000/svg"
   xmlns:sodipodi="http://sodipodi.sourceforge.net/DTD/sodipodi-0.dtd"
   xmlns:inkscape="http://www.inkscape.org/namespaces/inkscape"
   height="120px"
   id="Layer_1"
   style="enable-background:new 4 4 120 120;"
   version="1.1"
   viewBox="4 4 120 120"
   width="120px"
   xml:space="preserve"
   sodipodi:docname="SpeechBubbleFlip.svg"
   inkscape:version="0.92.1 r15371"><metadata
     id="metadata4495"><rdf:RDF><cc:Work
         rdf:about=""><dc:format>image/svg+xml</dc:format><dc:type
           rdf:resource="http://purl.org/dc/dcmitype/StillImage" /><dc:title></dc:title></cc:Work></rdf:RDF></metadata><defs
     id="defs4493" /><sodipodi:namedview
     pagecolor="#ffffff"
     bordercolor="#666666"
     borderopacity="1"
     objecttolerance="10"
     gridtolerance="10"
     guidetolerance="10"
     inkscape:pageopacity="0"
     inkscape:pageshadow="2"
     inkscape:window-width="2865"
     inkscape:window-height="1744"
     id="namedview4491"
     showgrid="false"
     inkscape:zoom="11.808333"
     inkscape:cx="60"
     inkscape:cy="60"
     inkscape:window-x="319"
     inkscape:window-y="-16"
     inkscape:window-maximized="1"
     inkscape:current-layer="bubble2" /><g
     id="bubble2"><g
       id="g4487"
       transform="matrix(-1,0,0,1,128.00211,0)"><path
         d="m 113.971,42.43 c -0.502,-0.73 -0.597,-1.863 -0.924,-2.77 -1.201,-3.307 -3.695,-5.325 -4.921,-8.611 -1.483,-1.08 -3.231,-1.895 -4.614,-3.076 -1.504,-1.16 -2.594,-2.742 -4.307,-3.692 C 96.48,23.52 93.939,22.577 91.207,21.82 88.062,21.376 85.299,20.55 82.598,19.666 72.567,19.136 62.229,18.91 51.836,18.744 c -0.395,0.017 -0.425,0.394 -0.924,0.309 -3.58,0.005 -6.744,0.431 -9.844,0.922 -2.401,0.777 -4.44,1.913 -6.766,2.769 -0.688,0.953 -2.07,1.211 -2.769,2.154 -0.969,0.67 -1.662,1.619 -2.77,2.152 -1.509,1.769 -3.152,3.409 -4.921,4.921 -1.817,2.897 -4.209,5.223 -5.842,8.306 -1.962,2.859 -3.284,6.352 -3.999,10.459 v 9.536 c 0.445,2.015 1.106,3.813 1.538,5.845 1.171,2.213 2.857,3.906 3.69,6.459 2.572,2.041 4.938,4.288 7.075,6.768 1.455,0.805 2.403,2.109 4.001,2.768 1.063,1.297 3.272,1.445 4.305,2.771 3.594,0.304 6.193,1.601 9.845,1.845 4.635,0.185 10.018,-0.379 14.148,0.309 0.805,0.529 0.328,2.342 1.233,2.768 0.154,1.282 1.075,1.797 1.228,3.076 1.348,1.422 2.32,3.216 3.69,4.615 1.309,1.564 2.585,3.16 3.999,4.613 1.31,1.564 2.742,3 4.308,4.307 0.692,1.947 3.234,3.262 5.229,2.152 1.021,-0.106 0.481,-1.771 0.614,-2.768 -0.227,-1.458 0.35,-2.115 0.311,-3.384 -0.24,-1.368 0.407,-1.849 0.307,-3.076 0.156,-1.073 0.14,-2.321 0.615,-3.075 0.17,-2.188 0.508,-4.211 0.924,-6.152 0.119,-1.111 0.406,-2.053 0.922,-2.77 0.726,-0.502 0.347,-2.113 0.924,-2.769 4.283,-0.841 7.9,-2.351 12.306,-3.076 4.293,-0.831 8.104,-2.147 11.071,-4.308 1.019,-1.03 1.32,-2.78 2.152,-3.998 1.043,-1.008 1.558,-2.543 2.461,-3.69 0.871,-2.925 2.056,-5.532 2.769,-8.613 0.602,-5.654 0.184,-12.33 0.305,-18.459 z m -6.768,22.761 c -0.264,-0.057 -0.289,0.119 -0.307,0.309 -0.899,2.688 -2.998,4.184 -4.617,6.152 -1.824,1.246 -3.816,2.33 -5.534,3.688 -2.759,0.625 -4.677,2.095 -7.382,2.771 -4.768,0.051 -8.766,-0.627 -12.924,0.307 -0.299,0.723 -0.533,1.514 -0.611,2.461 -0.375,0.553 -0.055,1.79 -0.614,2.154 0.233,1.158 -0.375,1.469 -0.308,2.461 -0.901,0.496 0.488,1.586 -0.311,1.845 0.147,2.099 -0.556,3.341 -0.617,5.229 -0.66,0.262 0.119,1.961 -0.611,2.154 -0.188,0.734 0.385,2.23 -0.309,2.461 0.053,1.297 -0.472,-0.006 -0.922,0 -0.093,-0.629 -0.834,-0.604 -0.925,-1.23 -0.739,-0.59 -1.223,-1.445 -1.846,-2.152 -1.313,-1.455 -2.688,-2.85 -3.691,-4.613 -0.624,-0.094 -0.601,-0.834 -1.229,-0.924 -0.394,-0.771 0.158,-0.964 -0.306,-1.23 -0.374,-0.961 -1.33,-1.338 -1.539,-2.461 -1.549,-1.219 -2.323,-3.217 -3.077,-5.229 -4.096,-0.622 -9.26,-0.173 -13.843,-0.309 -2.526,-0.347 -4.32,-1.421 -6.769,-1.847 -4.576,-2.6 -9.259,-5.093 -12.918,-8.61 -0.75,-1.707 -1.022,-3.898 -2.153,-5.23 -0.043,-0.572 -0.199,-1.027 -0.615,-1.23 -0.428,-0.188 -0.044,-1.184 -0.613,-1.23 -0.327,-0.905 -0.425,-2.037 -0.922,-2.768 v -8.921 c 0.621,-4.812 2.335,-8.531 4.303,-11.998 1.15,-1.621 2.389,-3.147 3.693,-4.613 0.907,-0.426 1.244,-1.42 2.153,-1.845 0.391,-0.941 1.76,-0.904 2.154,-1.846 4.203,-0.719 6.63,-3.213 10.459,-4.308 6.315,-0.655 12.408,-1.531 19.687,-1.229 4.476,0.955 8.453,2.415 12.611,3.691 4.806,-0.192 8.802,0.423 13.229,0.614 2.457,0.617 4.688,1.464 7.069,2.154 0.896,0.952 1.959,1.733 3.079,2.46 0.706,1.65 1.684,3.034 2.15,4.921 0.66,0.985 1.447,1.835 2.154,2.77 0.828,0.811 1.252,2.03 1.846,3.077 0.375,1.368 0.336,3.15 0.31,4.921 1.686,4.382 1.517,12.061 0.616,17.223 z"
         id="path4485"
         inkscape:connector-curvature="0" /></g></g></svg>